<?xml version="1.0" encoding="utf-8"?>
<!-- Generator: Adobe Illustrator 16.0.0, SVG Export Plug-In . SVG Version: 6.00 Build 0)  -->
<!DOCTYPE svg PUBLIC "-//W3C//DTD SVG 1.1//EN" "http://www.w3.org/Graphics/SVG/1.1/DTD/svg11.dtd">
<svg version="1.1" id="Layer_1" xmlns="http://www.w3.org/2000/svg" xmlns:xlink="http://www.w3.org/1999/xlink" x="0px" y="0px"
	 width="279.125px" height="18.54px" viewBox="0 43.44 279.125 18.54" enable-background="new 0 43.44 279.125 18.54"
	 xml:space="preserve">
<g>
	<path fill="#FFFFFF" d="M35.395,51.042c0-3.599-7.365-6.527-16.658-6.718l-0.093-0.432c-0.074-0.193-0.286-0.357-0.477-0.357
		h-0.763c-0.216,0-0.428,0.164-0.477,0.357l-0.119,0.432c-9.297,0.19-16.684,3.119-16.684,6.718c0,3.122,5.575,5.742,13.13,6.505
		l-0.357,1.385c-0.048,0.189,0.071,0.357,0.287,0.357h9.174c0.216,0,0.335-0.168,0.287-0.357l-0.357-1.385
		C29.82,56.784,35.395,54.164,35.395,51.042 M21.264,53.711L19.12,45.75c7.008,0.216,12.464,1.932,12.464,4.049
		C31.58,51.686,27.196,53.257,21.264,53.711 M3.962,49.803c0-2.121,5.459-3.859,12.463-4.049l-2.144,7.957
		C8.346,53.257,3.962,51.686,3.962,49.803"/>
	<path fill="#FFFFFF" d="M53.079,52.813h-5.855l2.97-7.39L53.079,52.813z M44.073,57.584h1.266l1.437-3.604h6.672l1.435,3.604h1.436
		l-5.32-13.427h-1.521L44.073,57.584z"/>
	<path fill="#FFFFFF" d="M57.949,51.996c0-1.632,1.084-3.434,2.886-3.434c1.801,0,2.52,1.717,2.52,3.434H57.949z M63.904,56.051
		c-0.535,0.352-1.802,0.717-2.702,0.717c-2.068,0-3.237-1.717-3.237-3.786h6.67v-0.634c0-2.617-1.083-4.771-3.885-4.771
		c-2.434,0-4.053,2.069-4.053,5.053c0,2.971,1.168,5.125,4.419,5.125c0.901,0,1.984-0.17,2.787-0.535V56.051z"/>
	<path fill="#FFFFFF" d="M65.888,50.012c0-1.07,0-1.52-0.085-2.238h1.268v1.887c0.451-1.084,1.252-2.069,2.52-2.069
		c0.267,0,0.633,0,0.816,0.085v1.266c-0.268-0.098-0.55-0.098-0.902-0.098c-1.886,0-2.335,2.168-2.335,3.885v4.869h-1.267v-7.586
		H65.888z"/>
	<path fill="#FFFFFF" d="M71.827,52.629c0-2.265,1.083-4.066,3.251-4.066c2.07,0,3.238,1.802,3.238,4.066
		c0,2.238-1.168,4.139-3.238,4.139C72.91,56.768,71.827,54.882,71.827,52.629 M70.476,52.629c0,2.688,1.435,5.125,4.602,5.125
		c3.153,0,4.504-2.437,4.504-5.125c0-2.632-1.351-5.053-4.504-5.053C71.927,47.576,70.476,50.012,70.476,52.629"/>
	<path fill="#FFFFFF" d="M88.056,52.629c0,1.886-0.534,4.139-2.885,4.139c-2.168,0-2.887-2.35-2.887-4.139
		c0-1.717,0.719-4.066,2.887-4.066C87.506,48.563,88.056,50.743,88.056,52.629 M81.116,61.553h1.168v-5.672h0.085
		c0.548,1.253,1.449,1.887,2.969,1.887c2.702,0,4.055-2.253,4.055-5.123c0-2.9-1.169-5.054-4.055-5.054
		c-2.069,0-2.787,1.45-3.055,1.984h-0.083l0.083-1.802h-1.168V61.553z"/>
	<path fill="#FFFFFF" d="M98.414,55.235c0,0.717,0,1.533,0.085,2.35h-1.168v-1.815h-0.1c-0.352,0.9-1.083,1.985-3.152,1.985
		c-2.351,0-3.335-1.619-3.335-3.688V47.76h1.267v5.954c0,1.801,0.633,3.054,2.252,3.054c2.252,0,2.886-1.984,2.886-3.604V47.76
		h1.266V55.235z"/>
	<path fill="#FFFFFF" d="M101.75,51.996c0-1.632,1.084-3.434,2.885-3.434c1.718,0,2.436,1.717,2.436,3.434H101.75z M107.704,56.051
		c-0.634,0.352-1.886,0.717-2.787,0.717c-2.069,0-3.153-1.717-3.153-3.786h6.672v-0.634c0-2.617-1.169-4.771-3.885-4.771
		c-2.52,0-4.139,2.069-4.139,5.053c0,2.971,1.169,5.125,4.421,5.125c0.9,0,1.984-0.17,2.885-0.535v-1.168H107.704z"/>
	<path fill="#FFFFFF" d="M110.041,50.012c0-1.07,0-1.52-0.085-2.238h1.168v1.887h0.085c0.449-1.084,1.266-2.069,2.519-2.069
		c0.281,0,0.633,0,0.816,0.085v1.266c-0.267-0.098-0.535-0.098-0.9-0.098c-1.886,0-2.435,2.168-2.435,3.885v4.869h-1.168V50.012z"/>
	<path fill="#FFFFFF" d="M120.316,48.844h-2.253v6.305c0,0.902,0.366,1.633,1.351,1.633c0.451,0,0.719-0.099,1.085-0.267
		l0.084,0.984c-0.267,0.085-0.9,0.269-1.436,0.269c-2.167,0-2.253-1.437-2.253-3.237v-5.687h-1.899v-1.07h1.899v-2.351l1.169-0.365
		v2.716h2.253V48.844z"/>
	<path fill="#FFFFFF" d="M122.384,52.629c0-2.265,1.084-4.066,3.252-4.066c2.068,0,3.151,1.802,3.151,4.066
		c0,2.238-1.083,4.139-3.151,4.139C123.468,56.768,122.384,54.882,122.384,52.629 M121.032,52.629c0,2.688,1.437,5.125,4.604,5.125
		c3.151,0,4.503-2.437,4.503-5.125c0-2.632-1.352-5.053-4.503-5.053C122.483,47.576,121.032,50.012,121.032,52.629"/>
	<path fill="#FFFFFF" d="M131.406,56.135c0.718,0.365,1.619,0.633,2.52,0.633c1.169,0,2.168-0.633,2.168-1.802
		c0-2.251-4.688-1.886-4.688-4.771c0-1.901,1.619-2.619,3.153-2.619c0.549,0,1.618,0.086,2.435,0.451l-0.084,0.985
		c-0.634-0.281-1.534-0.464-2.168-0.464c-1.253,0-2.167,0.464-2.167,1.633c0,1.801,4.87,1.617,4.87,4.771
		c0,2.068-1.985,2.786-3.42,2.786c-0.902,0-1.888-0.084-2.704-0.449L131.406,56.135z"/>
	<path fill="#FFFFFF" d="M148.704,52.18h-3.336l1.703-5.222h0.083L148.704,52.18z M139.878,57.584h3.604l1.083-2.885h5.053
		l0.985,2.885h3.87l-5.137-13.427h-4.42L139.878,57.584z"/>
	<path fill="#FFFFFF" d="M161.78,50.378c-0.366-0.169-0.816-0.169-1.169-0.169c-1.633-0.014-2.532,1.154-2.532,3.139v4.236h-3.436
		V47.576h3.153v1.803c0.634-1.268,1.45-2.068,2.984-2.068c0.365,0,0.801,0.083,1.168,0.183L161.78,50.378z"/>
	<path fill="#FFFFFF" d="M165.565,52.447c0-1.351,0.634-2.435,1.901-2.435c1.617,0,2.251,1.267,2.251,2.351
		c0,1.521-0.985,2.52-2.251,2.52C166.466,54.882,165.565,54.066,165.565,52.447 M173.039,47.576h-3.153v1.803
		c-0.731-1.268-1.984-2.068-3.42-2.068c-3.068,0-4.504,2.251-4.504,5.221c0,2.983,1.703,5.053,4.419,5.053
		c1.437,0,2.618-0.55,3.421-1.703v0.535c0,1.899-1.084,2.885-3.069,2.885c-1.448,0-2.35-0.365-3.335-0.816l-0.184,2.702
		c0.816,0.282,2.168,0.634,3.787,0.634c4.053,0,6.038-1.351,6.038-5.404V47.576z"/>
	<path fill="#FFFFFF" d="M177.176,51.644c0-1.167,0.634-2.068,1.901-2.068c1.352,0,1.899,0.901,1.899,2.068H177.176z
		 M184.031,53.531v-0.62c0-2.899-1.351-5.601-4.953-5.601c-3.153,0-5.404,1.982-5.404,5.221c0,3.35,2.533,5.223,5.854,5.223
		c1.268,0,2.535-0.17,3.604-0.634v-2.421c-1,0.535-2.084,0.802-3.068,0.802c-1.619,0-2.702-0.535-2.887-1.985h6.854V53.531z"/>
	<path fill="#FFFFFF" d="M185.199,47.576h3.153v1.803c0.717-1.45,2.068-2.068,3.603-2.068c2.702,0,3.87,1.982,3.87,4.053v6.221
		h-3.519v-4.869c0-1.901-0.632-2.52-1.534-2.52c-1.435,0-2.167,0.985-2.167,3.152v4.236h-3.42V47.576H185.199z"/>
	<path fill="#FFFFFF" d="M196.375,47.576h2.067v-2.251l3.337-0.985v3.236h2.433v2.421h-2.433v3.604c0,1.266,0.267,1.899,1.35,1.899
		c0.366,0,0.718-0.084,1.083-0.184l0.086,2.267c-0.633,0.084-1.251,0.17-2.152,0.17c-3.068,0-3.786-1.352-3.786-3.688v-4.068h-1.984
		V47.576L196.375,47.576z"/>
	<path fill="#FFFFFF" d="M205.48,47.576h3.437v10.008h-3.437V47.576z M208.9,45.959h-3.42v-2.52h3.42V45.959z"/>
	<path fill="#FFFFFF" d="M210.802,47.576h3.153v1.803c0.717-1.45,2.067-2.068,3.687-2.068c2.702,0,3.785,1.982,3.785,4.053v6.221
		h-3.42v-4.869c0-1.901-0.718-2.52-1.619-2.52c-1.449,0-2.166,0.985-2.166,3.152v4.236h-3.42V47.576z"/>
	<path fill="#FFFFFF" d="M225.215,54.432c0-0.986,0.898-1.352,2.067-1.352c0.549,0,1.083,0,1.533,0.084
		c0,1.084-0.898,2.351-2.166,2.351C225.847,55.515,225.215,55.065,225.215,54.432 M232.154,57.584
		c-0.086-0.816-0.171-1.633-0.171-2.436v-3.701c0-2.971-2.166-4.137-4.687-4.137c-1.521,0-2.785,0.266-4.053,0.73l0.083,2.337
		c1-0.535,2.069-0.718,3.153-0.718c1.253,0,2.254,0.352,2.336,1.717c-0.45-0.085-1.083-0.085-1.633-0.085
		c-1.886,0-5.135,0.352-5.135,3.322c0,2.167,1.715,3.153,3.7,3.153c1.435,0,2.337-0.535,3.153-1.803c0,0.55,0.085,1.085,0.085,1.633
		h3.167V57.584z"/>
	<path fill="#FFFFFF" d="M235.771,54.966c2.702-2.337,5.853-4.87,5.853-6.672c0-1.168-0.816-1.703-1.886-1.703
		c-1.182,0-2.702,0.451-3.519,0.902l-0.083-2.702c1.9-0.733,3.153-0.816,3.885-0.816c3.068,0,5.138,1.266,5.138,3.87
		c0,2.617-2.801,5.235-4.068,6.305l-0.901,0.901h5.223v2.533h-9.641V54.966z"/>
	<path fill="#FFFFFF" d="M251.082,55.318c-1.619,0-1.701-2.336-1.701-4.405c0-2.167,0.082-4.504,1.701-4.504
		s1.705,2.337,1.705,4.504C252.801,52.996,252.701,55.318,251.082,55.318 M251.082,57.754c4.421,0,5.138-3.422,5.138-6.842
		c0-3.519-0.717-6.953-5.138-6.953c-4.42,0-5.22,3.421-5.22,6.953C245.863,54.332,246.662,57.754,251.082,57.754"/>
	<path fill="#FFFFFF" d="M262.075,55.318c-1.619,0-1.718-2.336-1.718-4.405c0-2.167,0.085-4.504,1.718-4.504
		c1.619,0,1.801,2.337,1.801,4.504C263.876,52.996,263.708,55.318,262.075,55.318 M262.075,57.754c4.418,0,5.221-3.422,5.221-6.842
		c0-3.519-0.816-6.953-5.221-6.953c-4.42,0-5.138,3.421-5.138,6.953C256.938,54.332,257.669,57.754,262.075,57.754"/>
	<path fill="#FFFFFF" d="M273.069,55.318c-1.619,0-1.803-2.336-1.803-4.405c0-2.167,0.184-4.504,1.803-4.504
		c1.534,0,1.702,2.337,1.702,4.504C274.784,52.996,274.603,55.318,273.069,55.318 M273.069,57.754c4.418,0,5.136-3.422,5.136-6.842
		c0-3.519-0.718-6.953-5.136-6.953c-4.42,0-5.223,3.421-5.223,6.953C267.846,54.332,268.649,57.754,273.069,57.754"/>
</g>
</svg>
